<svg width="32" height="38" viewBox="0 0 32 38" fill="none" xmlns="http://www.w3.org/2000/svg">
<g id="Group">
<path id="Vector" d="M26.3889 13.7222C26.3889 25.3333 31.6667 24.2778 31.6667 29.5555C31.6667 29.5555 31.6667 31.6667 29.5556 31.6667H2.11111C0 31.6667 0 29.5555 0 29.5555C0 24.2778 5.27778 25.3333 5.27778 13.7222C5.27778 7.89344 10.0046 3.16666 15.8333 3.16666C21.6621 3.16666 26.3889 7.89344 26.3889 13.7222Z" fill="#2A414E"/>
<path id="Vector_2" d="M20 4C20 2.93913 19.5786 1.92172 18.8284 1.17157C18.0783 0.421427 17.0609 0 16 0C14.9391 0 13.9217 0.421427 13.1716 1.17157C12.4214 1.92172 12 2.93913 12 4C12 5.06087 12.4214 6.07828 13.1716 6.82843C13.9217 7.57857 14.9391 8 16 8C17.0609 8 18.0783 7.57857 18.8284 6.82843C19.5786 6.07828 20 5.06087 20 4Z" fill="#52AFFD"/>
<path id="Vector_3" d="M15.8333 38C16.9531 38 18.027 37.5552 18.8189 36.7633C19.6107 35.9715 20.0555 34.8976 20.0555 33.7778H11.6111C11.6111 34.8976 12.0559 35.9715 12.8477 36.7633C13.6396 37.5552 14.7135 38 15.8333 38Z" fill="#52AFFD"/>
</g>
</svg>
