<svg width="32" height="44" viewBox="0 0 32 44" fill="none" xmlns="http://www.w3.org/2000/svg">
<g id="Group">
<path id="Vector" d="M26.3889 19.7222C26.3889 31.3333 31.6667 30.2778 31.6667 35.5555C31.6667 35.5555 31.6667 37.6667 29.5556 37.6667H2.11111C0 37.6667 0 35.5555 0 35.5555C0 30.2778 5.27778 31.3333 5.27778 19.7222C5.27778 13.8934 10.0046 9.16666 15.8333 9.16666C21.6621 9.16666 26.3889 13.8934 26.3889 19.7222Z" fill="#2A414E"/>
<g id="Vector_2" filter="url(#filter0_d_47_140)">
<path d="M23 10C23 8.14348 22.2625 6.36301 20.9497 5.05025C19.637 3.7375 17.8565 3 16 3C14.1435 3 12.363 3.7375 11.0503 5.05025C9.7375 6.36301 9 8.14348 9 10C9 11.8565 9.7375 13.637 11.0503 14.9497C12.363 16.2625 14.1435 17 16 17C17.8565 17 19.637 16.2625 20.9497 14.9497C22.2625 13.637 23 11.8565 23 10Z" fill="#FF3F3F"/>
</g>
<path id="Vector_3" d="M15.8333 44C16.9531 44 18.027 43.5552 18.8189 42.7633C19.6107 41.9715 20.0555 40.8976 20.0555 39.7778H11.6111C11.6111 40.8976 12.0559 41.9715 12.8477 42.7633C13.6396 43.5552 14.7135 44 15.8333 44Z" fill="#52AFFD"/>
</g>
<defs>
<filter id="filter0_d_47_140" x="4" y="0" width="24" height="24" filterUnits="userSpaceOnUse" color-interpolation-filters="sRGB">
<feFlood flood-opacity="0" result="BackgroundImageFix"/>
<feColorMatrix in="SourceAlpha" type="matrix" values="0 0 0 0 0 0 0 0 0 0 0 0 0 0 0 0 0 0 127 0" result="hardAlpha"/>
<feOffset dy="2"/>
<feGaussianBlur stdDeviation="2.5"/>
<feComposite in2="hardAlpha" operator="out"/>
<feColorMatrix type="matrix" values="0 0 0 0 0 0 0 0 0 0 0 0 0 0 0 0 0 0 0.25 0"/>
<feBlend mode="normal" in2="BackgroundImageFix" result="effect1_dropShadow_47_140"/>
<feBlend mode="normal" in="SourceGraphic" in2="effect1_dropShadow_47_140" result="shape"/>
</filter>
</defs>
</svg>
