<svg width="32" height="36" viewBox="0 0 32 36" fill="none" xmlns="http://www.w3.org/2000/svg">
<g id="Group 4">
<path id="Vector" d="M18.2249 0.54C18.0899 0.405 17.9549 0.315 17.7749 0.225C17.6849 0.18 17.5949 0.135 17.4599 0.0900003C17.2799 0.0450003 17.0999 0 16.9199 0H14.4899C13.4999 0 12.6899 0.81 12.6899 1.8V2.025C12.6899 2.16 12.7349 2.25 12.7349 2.34C12.7799 2.475 12.8249 2.565 12.8699 2.655C12.8699 2.7 12.9149 2.745 12.9599 2.79C13.0499 2.88 13.0949 3.015 13.2299 3.105C13.5449 3.42 13.9949 3.6 14.4899 3.6H15.2549V5.535H16.1549V3.6H16.9199C17.9099 3.6 18.7199 2.79 18.7199 1.8C18.7199 1.305 18.5399 0.855 18.2249 0.54ZM16.9199 2.7H14.4899C13.9949 2.7 13.5899 2.295 13.5899 1.8C13.5899 1.305 13.9949 0.9 14.4899 0.9H16.9199C17.4149 0.9 17.8199 1.305 17.8199 1.8C17.8199 2.295 17.4149 2.7 16.9199 2.7Z" fill="#263A46"/>
<path id="Vector_2" d="M26.5949 3.91502L25.1099 5.58002C24.9299 5.76002 24.9749 6.03002 25.1549 6.21002L28.5299 9.18002C28.7099 9.36002 28.9799 9.31502 29.1599 9.13502L30.6449 7.47002C30.8249 7.29002 30.7799 7.02002 30.5999 6.84002L27.2249 3.87002C27.0449 3.69002 26.7749 3.73502 26.5949 3.91502Z" fill="#2A414E"/>
<path id="Vector_3" d="M24.4066 9.13408L26.1949 7.11133L27.5436 8.30383L25.7548 10.3266L24.4066 9.13408Z" fill="#F3F3F3"/>
<path id="Vector_4" d="M4.81498 3.91502L6.29998 5.58002C6.47998 5.76002 6.43498 6.03002 6.25498 6.21002L2.87998 9.18002C2.69998 9.36002 2.42998 9.31502 2.24998 9.13502L0.764978 7.47002C0.584978 7.29002 0.629979 7.02002 0.809979 6.84002L4.18498 3.87002C4.36498 3.69002 4.63498 3.73502 4.81498 3.91502Z" fill="#2A414E"/>
<path id="Vector_5" d="M3.88977 8.31692L5.23842 7.12442L7.02672 9.14717L5.67852 10.3397L3.88977 8.31692Z" fill="#F3F3F3"/>
<path id="Vector_6" d="M15.705 36C24.3786 36 31.41 28.9686 31.41 20.295C31.41 11.6214 24.3786 4.59 15.705 4.59C7.03137 4.59 0 11.6214 0 20.295C0 28.9686 7.03137 36 15.705 36Z" fill="#314D5C"/>
<path id="Vector_7" d="M15.705 33.39C22.9372 33.39 28.8 27.5272 28.8 20.295C28.8 13.0628 22.9372 7.20001 15.705 7.20001C8.47282 7.20001 2.60999 13.0628 2.60999 20.295C2.60999 27.5272 8.47282 33.39 15.705 33.39Z" fill="#F7F8F9"/>
<path id="Vector_8" d="M15.705 11.88C15.705 11.88 13.59 19.125 13.59 20.295C13.59 21.465 14.535 22.41 15.705 22.41C16.875 22.41 17.82 21.465 17.82 20.295C17.82 19.17 15.705 11.88 15.705 11.88Z" fill="#52AFFD"/>
<g id="Group">
<path id="Vector_9" d="M14.985 8.86499H16.38V10.755H14.985V8.86499ZM15.255 29.925H16.65V31.815H15.255V29.925ZM22.0243 12.978L23.3608 11.6415L24.3472 12.6283L23.0107 13.9648L22.0243 12.978ZM7.29449 28.0111L8.63054 26.6746L9.61694 27.661L8.28044 28.9975L7.29449 28.0111ZM25.425 19.485H27.315V20.88H25.425V19.485ZM4.36499 19.71H6.25499V21.105H4.36499V19.71ZM22.176 27.5067L23.1619 26.5203L24.4984 27.8568L23.5125 28.8432L22.176 27.5067ZM7.14284 12.7795L8.12924 11.7931L9.46574 13.1296L8.47934 14.116L7.14284 12.7795Z" fill="#939393"/>
</g>
<path id="Vector_10" d="M15.705 21.465C16.3512 21.465 16.875 20.9412 16.875 20.295C16.875 19.6488 16.3512 19.125 15.705 19.125C15.0589 19.125 14.535 19.6488 14.535 20.295C14.535 20.9412 15.0589 21.465 15.705 21.465Z" fill="#F7F8F9"/>
</g>
</svg>
