<svg width="33" height="36" viewBox="0 0 33 36" fill="none" xmlns="http://www.w3.org/2000/svg">
<g id="Group">
<path id="Vector" d="M3 3H30C31.662 3 33 4.338 33 6V13.5H0V6C0 4.338 1.338 3 3 3Z" fill="#52AFFD"/>
<path id="Vector_2" d="M0 12V33C0 34.662 1.338 36 3 36H30C31.662 36 33 34.662 33 33V12H0Z" fill="#E9EDED"/>
<path id="Vector_3" d="M9 1.5C9 0.671573 8.32843 0 7.5 0C6.67157 0 6 0.671573 6 1.5V7.5C6 8.32843 6.67157 9 7.5 9C8.32843 9 9 8.32843 9 7.5V1.5Z" fill="#34485C"/>
<path id="Vector_4" d="M27 1.5C27 0.671573 26.3284 0 25.5 0C24.6716 0 24 0.671573 24 1.5V7.5C24 8.32843 24.6716 9 25.5 9C26.3284 9 27 8.32843 27 7.5V1.5Z" fill="#34485C"/>
<path id="Vector_5" d="M27 15H24V18H27V15Z" fill="#CAD1D8"/>
<path id="Vector_6" d="M21 15H18V18H21V15Z" fill="#CAD1D8"/>
<path id="Vector_7" d="M15 15H12V18H15V15Z" fill="#CAD1D8"/>
<path id="Vector_8" d="M9 15H6V18H9V15Z" fill="#CAD1D8"/>
<path id="Vector_9" d="M27 21H24V24H27V21Z" fill="#CAD1D8"/>
<path id="Vector_10" d="M21 21H18V24H21V21Z" fill="#CAD1D8"/>
<path id="Vector_11" d="M15 21H12V24H15V21Z" fill="#CAD1D8"/>
<path id="Vector_12" d="M9 21H6V24H9V21Z" fill="#CAD1D8"/>
<path id="Vector_13" d="M21 27H18V30H21V27Z" fill="#CAD1D8"/>
<path id="Vector_14" d="M15 27H12V30H15V27Z" fill="#CAD1D8"/>
<path id="Vector_15" d="M9 27H6V30H9V27Z" fill="#CAD1D8"/>
</g>
</svg>
