<svg width="36" height="36" viewBox="0 0 36 36" fill="none" xmlns="http://www.w3.org/2000/svg">
<g id="Group 5">
<path id="Vector" d="M7.2 0C5.29044 0 3.45909 0.758569 2.10883 2.10883C0.758569 3.45909 0 5.29044 0 7.2V12.6H3.6V7.2C3.6 6.24522 3.97928 5.32955 4.65442 4.65442C5.32955 3.97928 6.24522 3.6 7.2 3.6H28.8C29.7548 3.6 30.6705 3.97928 31.3456 4.65442C32.0207 5.32955 32.4 6.24522 32.4 7.2V28.8C32.4 29.7548 32.0207 30.6705 31.3456 31.3456C30.6705 32.0207 29.7548 32.4 28.8 32.4H7.2C6.24522 32.4 5.32955 32.0207 4.65442 31.3456C3.97928 30.6705 3.6 29.7548 3.6 28.8V23.4H0V28.8C0 30.7096 0.758569 32.5409 2.10883 33.8912C3.45909 35.2414 5.29044 36 7.2 36H28.8C30.7096 36 32.5409 35.2414 33.8912 33.8912C35.2414 32.5409 36 30.7096 36 28.8V7.2C36 5.29044 35.2414 3.45909 33.8912 2.10883C32.5409 0.758569 30.7096 0 28.8 0H7.2Z" fill="#2A414E"/>
<path id="Vector_2" d="M1.8 16.2C1.32261 16.2 0.864773 16.3896 0.527208 16.7272C0.189642 17.0648 0 17.5226 0 18C0 18.4774 0.189642 18.9352 0.527208 19.2728C0.864773 19.6103 1.32261 19.8 1.8 19.8H19.0476L14.4846 24.3648C14.1567 24.7043 13.9753 25.159 13.9794 25.6309C13.9835 26.1029 14.1728 26.5543 14.5065 26.8881C14.8403 27.2218 15.2917 27.4111 15.7637 27.4152C16.2356 27.4193 16.6903 27.2379 17.0298 26.91L24.5826 19.3572C24.7771 19.1886 24.933 18.9801 25.0399 18.7459C25.1468 18.5118 25.2021 18.2574 25.2021 18C25.2021 17.7426 25.1468 17.4882 25.0399 17.254C24.933 17.0199 24.7771 16.8114 24.5826 16.6428L17.028 9.08999C16.862 8.91807 16.6633 8.78094 16.4437 8.6866C16.2241 8.59227 15.9879 8.54261 15.7489 8.54053C15.5099 8.53846 15.2729 8.584 15.0517 8.67451C14.8305 8.76501 14.6295 8.89867 14.4605 9.06767C14.2915 9.23668 14.1578 9.43765 14.0673 9.65887C13.9768 9.88008 13.9313 10.1171 13.9333 10.3561C13.9354 10.5951 13.9851 10.8313 14.0794 11.0509C14.1738 11.2705 14.3109 11.4691 14.4828 11.6352L19.0476 16.2H1.8Z" fill="#52AFFD"/>
</g>
</svg>
