<svg width="36" height="36" viewBox="0 0 36 36" fill="none" xmlns="http://www.w3.org/2000/svg">
<path id="Vector" fill-rule="evenodd" clip-rule="evenodd" d="M22.3112 25.13C19.4858 27.2428 15.965 28.2069 12.4574 27.8284C8.94972 27.4499 5.71564 25.7569 3.40599 23.09C1.09635 20.4231 -0.117421 16.9803 0.00896513 13.4546C0.135351 9.92886 1.59251 6.58185 4.08718 4.08718C6.58185 1.59251 9.92886 0.135351 13.4546 0.00896513C16.9803 -0.117421 20.4231 1.09635 23.09 3.40599C25.7569 5.71564 27.4499 8.94972 27.8284 12.4574C28.2069 15.965 27.2428 19.4858 25.13 22.3112L35.4404 32.6216C35.8035 32.9976 36.0045 33.5011 35.9999 34.0238C35.9954 34.5465 35.7857 35.0465 35.4161 35.4161C35.0465 35.7857 34.5465 35.9954 34.0238 35.9999C33.5011 36.0045 32.9976 35.8035 32.6216 35.4404L22.3112 25.13ZM23.922 13.9545C23.922 16.598 22.8718 19.1333 21.0026 21.0026C19.1333 22.8718 16.598 23.922 13.9545 23.922C11.3109 23.922 8.77567 22.8718 6.9064 21.0026C5.03714 19.1333 3.98699 16.598 3.98699 13.9545C3.98699 11.3109 5.03714 8.77567 6.9064 6.9064C8.77567 5.03714 11.3109 3.98699 13.9545 3.98699C16.598 3.98699 19.1333 5.03714 21.0026 6.9064C22.8718 8.77567 23.922 11.3109 23.922 13.9545Z" fill="#2A414E"/>
</svg>
