<svg width="32" height="32" viewBox="0 0 32 32" fill="none" xmlns="http://www.w3.org/2000/svg">
<g id="XMLID_50_">
<path id="XMLID_378_" d="M27.3151 4.65364C24.294 1.65129 20.2721 0 16 0C11.7279 0 7.71228 1.65129 4.69116 4.65364C1.6638 7.65598 0 11.6466 0 15.8937C0 20.1407 1.6638 24.1314 4.69116 27.1337C7.71228 30.1298 11.7279 31.7873 16 31.7873C20.2721 31.7873 24.2877 30.136 27.3088 27.1337C30.3362 24.1314 32 20.1407 32 15.8937C32 11.6466 30.3362 7.65598 27.3151 4.65364ZM28.4848 10.7897H22.5489C22.5426 10.7709 22.5426 10.7522 22.5364 10.7334C21.9609 7.62471 21.1165 5.01016 20.4597 3.25254C24.0938 4.51603 27.0211 7.28069 28.4848 10.7897ZM14.1923 2.62705C14.7866 2.54574 15.387 2.50821 16 2.50821C16.5066 2.50821 17.0008 2.53948 17.4887 2.58952C18.0266 3.83425 19.2338 6.89914 19.9969 10.7897H12.2533C12.9038 6.4613 13.9859 3.22752 14.1923 2.62705ZM2.50195 15.8937C2.50195 15.0055 2.58952 14.136 2.7584 13.2916H9.43237C9.20094 15.7998 9.18217 18.2142 9.37608 20.4848H3.32134C2.78968 19.0524 2.50195 17.5074 2.50195 15.8937ZM4.55981 22.9867H9.68882C10.0016 24.8944 10.4707 26.6959 11.1087 28.3659C8.3878 27.3151 6.09226 25.4074 4.55981 22.9867ZM9.72635 10.7897H3.5215C4.96013 7.34324 7.8061 4.62236 11.3401 3.3276C10.871 4.92885 10.183 7.57467 9.72635 10.7897ZM17.8014 29.1603C17.2134 29.2353 16.613 29.2791 16.0063 29.2791C15.3808 29.2791 14.7678 29.2353 14.1611 29.154C13.2103 27.1775 12.5973 25.0821 12.2346 22.9867H20.122C19.6779 25.0696 18.9398 27.165 17.8014 29.1603ZM20.5098 20.4848H11.8968C11.6654 17.9265 11.7404 15.4558 11.9468 13.2916H20.4034C20.6787 15.4621 20.785 17.9328 20.5098 20.4848ZM21.0227 28.3221C21.7607 26.6521 22.3174 24.8694 22.674 22.9867H27.4464C25.939 25.3761 23.6873 27.2588 21.0227 28.3221ZM23.0367 20.4848L23.0555 20.2596C23.2557 18.0453 23.2119 15.706 22.9242 13.2916H29.2478C29.4167 14.136 29.5043 15.0055 29.5043 15.8937C29.5043 17.5074 29.2166 19.0524 28.6849 20.4848H23.0367Z" fill="#181818"/>
</g>
</svg>
